<svg width="17" height="24" fill="none" xmlns="http://www.w3.org/2000/svg"><path d="M16.576 23.385H.428a.34.34 0 01-.247-.107.35.35 0 01-.095-.254l.77-16.3a.343.343 0 01.341-.328h14.61c.182 0 .333.144.342.328l.768 16.3a.342.342 0 01-.342.362zm-15.79-.69h15.43l-.735-15.61H1.522l-.736 15.61z" fill="#FFCA28"/><path d="M12.194 8.466a.343.343 0 01-.341-.345V4.692c0-1.866-1.504-3.384-3.353-3.384-1.849 0-3.353 1.518-3.353 3.384v3.429c0 .19-.153.345-.341.345a.343.343 0 01-.342-.345V4.692C4.464 2.446 6.274.618 8.5.618c2.226 0 4.036 1.828 4.036 4.074v3.429c0 .19-.152.345-.342.345z" fill="#FFCA28"/></svg>