<svg width="57" height="60" fill="none" xmlns="http://www.w3.org/2000/svg"><path d="M55.746 13.239L28.503.087a.88.88 0 00-.764 0L.497 13.24a.879.879 0 00-.497.79v31.94c0 .337.193.645.497.791l27.242 13.152a.88.88 0 00.764 0L55.746 46.76a.879.879 0 00.496-.791V14.03a.88.88 0 00-.496-.791zM28.12 1.855L53.34 14.03l-7.31 3.53a.87.87 0 00-.149-.094L20.832 5.373l7.29-3.518zm-9.273 4.512l25.184 12.158-5.158 2.49L13.7 8.862l5.148-2.495zM44.62 20.192v9.205l-4.818 2.326v-9.205l4.818-2.326zm9.864 25.226L29 57.721V27.733l6.08-2.933a.879.879 0 10-.764-1.583l-6.194 2.99-2.437-1.177a.879.879 0 10-.764 1.583l2.322 1.121v29.988L1.758 45.418V15.43l19.406 9.368a.88.88 0 00.764-1.583L2.901 14.03l8.73-4.215 26.402 12.746.012.015v10.547a.88.88 0 001.261.792l6.576-3.175a.879.879 0 00.497-.791V19.344l8.106-3.913v29.987z" fill="#6C7884"/></svg>