<svg width="57" height="60" viewBox="0 0 56 47" fill="none" xmlns="http://www.w3.org/2000/svg"><path d="M21.466 0H0v10.267h1.867v36.4h52.266v-36.4H56V0H21.467zm11.2 1.867V8.4h-9.333V1.867h9.334zm-9.333 8.4h9.334v3.856l-1.986-1.324L28 15.48l-2.681-2.68-1.986 1.324v-3.856zm-21.466-8.4h19.6V8.4h-19.6V1.867zM23.333 44.8v-6.656l1.986 1.324 2.68-2.682 2.682 2.682 1.986-1.324V44.8h-9.334zm28.934 0H34.533V34.656l-3.615 2.41L28 34.145l-2.919 2.92-3.614-2.41V44.8H3.732V10.267h17.733v7.343l3.615-2.41L28 18.12l2.918-2.92 3.615 2.41v-7.343h17.734V44.8zm1.866-42.933V8.4h-19.6V1.867h19.6z" fill="#6C7884"/><path d="M18.666 20.533l1.493-1.12-1.12-1.493-4.73 3.546 4.73 3.547 1.12-1.493-1.493-1.12h17.266a4.2 4.2 0 110 8.4H15.865v1.867h20.067a6.067 6.067 0 100-12.134H18.666z" fill="#6C7884"/></svg>