<svg width="57" height="60" viewBox="0 0 54 45" fill="none" xmlns="http://www.w3.org/2000/svg"><path d="M28.79 30.59h14.396c.54 0 .9-.36.9-.9v-8.097c0-.54-.36-.9-.9-.9H28.79c-.54 0-.9.36-.9.9v8.098c0 .54.36.9.9.9zm.9-8.097h12.596v6.298H29.69v-6.298zM4.497 18.894h7.197c.54 0 .9-.36.9-.9s-.36-.9-.9-.9H4.497c-.54 0-.9.36-.9.9s.36.9.9.9zm10.794 0h7.198c.54 0 .9-.36.9-.9s-.36-.9-.9-.9H15.29c-.54 0-.9.36-.9.9s.36.9.9.9zM4.497 22.493h11.696c.54 0 .9-.36.9-.9s-.36-.9-.9-.9H4.497c-.54 0-.9.36-.9.9s.36.9.9.9zm17.998-1.799h-2.699c-.54 0-.9.36-.9.9 0 .539.36.899.9.899h2.7c.539 0 .899-.36.899-.9s-.36-.9-.9-.9z" fill="#6C7884"/><path d="M53.173 9.537c-.63-.81-1.44-1.26-2.429-1.35l-2.16-.261V3.598A3.61 3.61 0 0044.987 0H3.599A3.61 3.61 0 000 3.599V32.39a3.612 3.612 0 002.578 3.45 3.502 3.502 0 003.18 3.568l41.567 4.678h.36c1.8 0 3.42-1.35 3.599-3.059l2.7-28.88c.09-.9-.18-1.89-.81-2.61zM1.8 6.298h44.986v5.398H1.8V6.298zm1.8-4.499h41.387c.99 0 1.8.81 1.8 1.8v.9H1.798v-.9c0-.99.81-1.8 1.8-1.8zm-1.8 30.59V13.497h44.986V32.39c0 .99-.81 1.8-1.799 1.8H3.599c-.99 0-1.8-.81-1.8-1.8zm50.385-20.603l-2.7 28.881c-.09.99-.99 1.71-1.979 1.62L6.028 37.608c-.9-.09-1.53-.81-1.62-1.62h40.578a3.61 3.61 0 003.599-3.598V9.626l2.07.18c.449 0 .899.27 1.169.63s.45.9.36 1.35z" fill="#6C7884"/></svg>