<svg width="57" height="60" viewBox="0 0 41 48" fill="none" xmlns="http://www.w3.org/2000/svg"><path d="M39.494 8.145C33.004 6.367 26.477 3.598 20.617.138a.992.992 0 00-1.009 0C13.578 3.698 7.404 6.316.73 8.145a.992.992 0 00-.73.957v10.137c0 10.44 4.816 17.35 8.856 21.309 4.35 4.262 9.417 6.619 11.256 6.619 1.84 0 6.907-2.357 11.256-6.62 4.04-3.958 8.856-10.868 8.856-21.308V9.102a.992.992 0 00-.73-.957zM38.24 19.239c0 9.75-4.492 16.199-8.26 19.891-4.278 4.191-8.851 6.052-9.868 6.052-1.016 0-5.59-1.86-9.867-6.052-3.768-3.692-8.26-10.14-8.26-19.89V9.854c6.38-1.811 12.325-4.34 18.127-7.712A80.612 80.612 0 0038.24 9.854v9.385z" fill="#6C7884"/><path d="M11.32 9.744a.992.992 0 00-1.287-.56 80.715 80.715 0 01-5.407 1.911.992.992 0 00-.696.947v3.831a.992.992 0 001.985 0v-3.106a82.695 82.695 0 004.845-1.736.993.993 0 00.56-1.287zm1.881.188a.993.993 0 00.398-.083l.019-.008a.99.99 0 00.508-1.306.995.995 0 00-1.31-.51l-.016.007a.993.993 0 00.401 1.9zm18.734 22.061a.992.992 0 00-1.373.288 24.148 24.148 0 01-2.851 3.56 25.332 25.332 0 01-2.846 2.533.992.992 0 001.203 1.578 27.346 27.346 0 003.07-2.73 26.1 26.1 0 003.085-3.856.992.992 0 00-.288-1.373zm-9.377 7.937l-.057.033a.992.992 0 00.994 1.718l.065-.039a.992.992 0 10-1.002-1.712zM13.35 21.558a3.205 3.205 0 00-2.281-.944c-.862 0-1.672.335-2.282.944a3.23 3.23 0 000 4.563l5.859 5.859c.609.609 1.42.944 2.281.944.862 0 1.672-.335 2.281-.944l12.23-12.23a3.23 3.23 0 000-4.563 3.205 3.205 0 00-2.28-.945c-.863 0-1.673.335-2.282.945l-9.95 9.949-3.576-3.578zm14.929-4.968a1.23 1.23 0 01.878-.364 1.244 1.244 0 01.878 2.12l-12.23 12.23a1.234 1.234 0 01-.878.364c-.332 0-.644-.13-.878-.364l-5.859-5.858a1.243 1.243 0 01.878-2.12c.332 0 .644.13.879.364l4.278 4.278a.993.993 0 001.403 0l10.65-10.65z" fill="#6C7884"/></svg>